<?xml version="1.0" encoding="iso-8859-1"?>
<!-- Generator: Adobe Illustrator 19.0.0, SVG Export Plug-In . SVG Version: 6.00 Build 0)  -->
<svg version="1.1" id="Capa_1" xmlns="http://www.w3.org/2000/svg" xmlns:xlink="http://www.w3.org/1999/xlink" x="0px" y="0px"
	 viewBox="0 0 512.035 512.035" style="enable-background:new 0 0 512.035 512.035;" xml:space="preserve">
<path style="fill:#2196F3;" d="M488.502,256.035l22.464-58.592c2.464-6.464,0.544-13.792-4.864-18.176l-48.704-39.488l-9.856-61.984
	c-1.088-6.848-6.464-12.192-13.312-13.28l-61.984-9.856L332.79,5.923c-4.352-5.408-11.84-7.328-18.144-4.864l-58.624,22.496
	L197.43,1.091c-6.496-2.496-13.76-0.512-18.144,4.864l-39.488,48.736l-61.984,9.856c-6.816,1.088-12.192,6.464-13.28,13.28
	l-9.856,61.984L5.942,179.299c-5.376,4.352-7.328,11.68-4.864,18.144l22.464,58.592L1.078,314.627
	c-2.496,6.464-0.512,13.792,4.864,18.144l48.736,39.456l9.856,61.984c1.088,6.848,6.432,12.224,13.28,13.312l61.984,9.856
	l39.488,48.704c4.384,5.44,11.712,7.36,18.176,4.864l58.56-22.432l58.592,22.464c1.856,0.704,3.776,1.056,5.728,1.056
	c4.704,0,9.344-2.08,12.448-5.952l39.456-48.704l61.984-9.856c6.848-1.088,12.224-6.464,13.312-13.312l9.856-61.984l48.704-39.456
	c5.408-4.384,7.328-11.68,4.864-18.144L488.502,256.035z"/>
<g>
	<path style="fill:#FAFAFA;" d="M112.022,208.035c8.832,0,16-7.168,16-16s-7.168-16-16-16h-32c-8.832,0-16,7.168-16,16v128
		c0,8.832,7.168,16,16,16s16-7.168,16-16v-48h16c8.832,0,16-7.168,16-16s-7.168-16-16-16h-16v-32H112.022z"/>
	<path style="fill:#FAFAFA;" d="M336.022,208.035c8.832,0,16-7.168,16-16s-7.168-16-16-16h-32c-8.832,0-16,7.168-16,16v128
		c0,8.832,7.168,16,16,16h32c8.832,0,16-7.168,16-16s-7.168-16-16-16h-16v-32h16c8.832,0,16-7.168,16-16s-7.168-16-16-16h-16v-32
		H336.022z"/>
	<path style="fill:#FAFAFA;" d="M432.022,272.035c8.832,0,16-7.168,16-16s-7.168-16-16-16h-16v-32h16c8.832,0,16-7.168,16-16
		s-7.168-16-16-16h-32c-8.832,0-16,7.168-16,16v128c0,8.832,7.168,16,16,16h32c8.832,0,16-7.168,16-16s-7.168-16-16-16h-16v-32
		H432.022z"/>
	<path style="fill:#FAFAFA;" d="M256.022,224.035c0-26.464-21.536-48-48-48h-32c-8.832,0-16,7.168-16,16v128c0,8.832,7.168,16,16,16
		s16-7.168,16-16v-37.344l35.2,46.944c3.136,4.192,7.936,6.4,12.8,6.4c3.328,0,6.688-1.024,9.568-3.2
		c7.072-5.312,8.512-15.328,3.2-22.4l-30.56-40.8C241.718,263.555,256.022,245.539,256.022,224.035z M208.022,240.035h-16v-32h16
		c8.832,0,16,7.168,16,16S216.854,240.035,208.022,240.035z"/>
</g>
<g>
</g>
<g>
</g>
<g>
</g>
<g>
</g>
<g>
</g>
<g>
</g>
<g>
</g>
<g>
</g>
<g>
</g>
<g>
</g>
<g>
</g>
<g>
</g>
<g>
</g>
<g>
</g>
<g>
</g>
</svg>
